<?xml version="1.0" standalone="no"?>
<!DOCTYPE svg PUBLIC "-//W3C//DTD SVG 20010904//EN"
 "http://www.w3.org/TR/2001/REC-SVG-20010904/DTD/svg10.dtd">
<svg version="1.0" xmlns="http://www.w3.org/2000/svg"
 width="384.000000pt" height="384.000000pt" viewBox="0 0 384.000000 384.000000"
 preserveAspectRatio="xMidYMid meet">
<metadata>
Created by potrace 1.14, written by Peter Selinger 2001-2017
</metadata>
<g transform="translate(0.000000,384.000000) scale(0.100000,-0.100000)"
fill="#000000" stroke="none">
<path d="M2763 3601 c-127 -72 -234 -115 -383 -153 -101 -27 -137 -31 -300
-35 -144 -4 -206 -2 -280 11 -137 24 -278 70 -409 133 -97 47 -117 54 -137 44
-14 -6 -29 -22 -36 -35 -18 -41 11 -71 121 -124 138 -67 172 -80 280 -109 126
-33 145 -44 165 -94 14 -35 15 -52 6 -123 -40 -288 -188 -538 -400 -675 -160
-104 -403 -157 -599 -132 -130 17 -165 50 -163 155 2 134 58 322 133 450 62
105 202 240 309 296 120 64 140 108 67 150 -24 13 -30 12 -88 -15 -275 -131
-476 -411 -534 -741 -23 -135 -20 -220 11 -282 49 -99 119 -133 287 -140 76
-3 117 -9 117 -16 0 -6 -11 -51 -23 -101 l-23 -89 -90 -12 c-153 -19 -276 -64
-395 -145 -374 -252 -503 -741 -302 -1144 265 -532 969 -660 1406 -256 118
110 205 249 253 406 25 82 28 104 28 250 0 145 -3 168 -27 248 -63 203 -190
379 -356 491 -59 40 -85 44 -119 20 -21 -15 -26 -14 -59 1 -48 23 -162 55
-195 55 -16 0 -28 4 -28 9 0 17 30 143 51 213 21 71 31 81 92 92 159 29 362
139 473 258 124 132 186 234 254 416 7 18 15 30 18 28 2 -3 22 -56 42 -118 71
-212 179 -430 307 -614 35 -51 63 -97 63 -104 0 -7 -20 -34 -45 -62 -90 -101
-160 -245 -191 -397 -22 -112 -15 -304 15 -409 74 -254 236 -450 470 -567 219
-109 501 -119 732 -25 200 81 367 237 467 435 34 69 62 156 62 196 0 15 7 29
15 33 21 8 22 321 1 329 -7 3 -16 27 -20 55 -7 57 -44 154 -82 221 -130 223
-352 383 -606 435 -147 30 -404 12 -435 -31 -7 -9 -13 -29 -13 -45 0 -17 -5
-28 -14 -28 -15 0 -63 -21 -135 -59 l-43 -23 34 -23 c41 -28 65 -76 52 -106
-8 -17 -18 -9 -88 72 -198 231 -363 540 -456 851 -35 117 -82 337 -74 350 3 4
53 8 112 8 277 1 591 94 830 246 46 30 52 38 52 67 0 37 -25 67 -56 67 -10 -1
-65 -27 -121 -59z m-330 -1690 c65 -72 71 -85 52 -121 -9 -17 -28 -35 -43 -41
-34 -13 -42 -26 -42 -67 0 -20 8 -39 20 -50 18 -15 20 -24 14 -73 -3 -31 -1
-95 5 -141 33 -250 176 -475 381 -602 55 -34 94 -88 84 -118 -6 -19 -11 -20
-66 -14 -77 8 -211 54 -286 97 -92 55 -230 200 -279 294 -71 137 -88 209 -88
365 0 148 17 226 75 340 35 69 109 170 126 170 6 0 28 -18 47 -39z m-1403
-100 c0 -22 -35 -91 -47 -91 -6 0 5 114 14 144 5 18 6 18 19 -5 7 -13 13 -35
14 -48z m-187 -42 c-1 -35 -5 -83 -8 -106 -6 -41 -8 -43 -41 -43 -19 0 -34 -5
-34 -10 0 -6 -18 -1 -39 12 -33 19 -43 20 -65 10 -42 -19 -54 -56 -32 -97 l19
-34 -32 -27 c-86 -72 -180 -261 -211 -424 -18 -91 -13 -255 10 -340 29 -109
26 -141 -17 -199 -6 -9 -75 64 -119 126 -144 200 -179 456 -95 693 87 246 304
437 556 490 50 10 95 17 100 16 6 -2 9 -31 8 -67z"/>
</g>
</svg>
